<svg width="27" height="31" viewBox="0 0 27 31" fill="none" xmlns="http://www.w3.org/2000/svg">
<path d="M10.9357 0.000122803C10.759 -0.00227425 10.5837 0.0304424 10.4198 0.096373C10.256 0.162304 10.1068 0.260134 9.98108 0.384183C9.85534 0.508232 9.75549 0.656028 9.68734 0.818987C9.61919 0.981946 9.5841 1.15682 9.5841 1.33346H1.60232C1.42564 1.33096 1.25022 1.3636 1.08627 1.42948C0.922309 1.49537 0.773081 1.59318 0.647254 1.71724C0.521428 1.8413 0.421513 1.98913 0.353316 2.15214C0.285119 2.31515 0.25 2.49009 0.25 2.66679C0.25 2.84349 0.285119 3.01843 0.353316 3.18144C0.421513 3.34445 0.521428 3.49228 0.647254 3.61634C0.773081 3.7404 0.922309 3.83821 1.08627 3.90409C1.25022 3.96998 1.42564 4.00262 1.60232 4.00012H25.6023C25.779 4.00262 25.9544 3.96998 26.1184 3.90409C26.2823 3.83821 26.4316 3.7404 26.5574 3.61634C26.6832 3.49228 26.7831 3.34445 26.8513 3.18144C26.9195 3.01843 26.9546 2.84349 26.9546 2.66679C26.9546 2.49009 26.9195 2.31515 26.8513 2.15214C26.7831 1.98913 26.6832 1.8413 26.5574 1.71724C26.4316 1.59318 26.2823 1.49537 26.1184 1.42948C25.9544 1.3636 25.779 1.33096 25.6023 1.33346H17.6206C17.6206 1.15682 17.5855 0.981946 17.5173 0.818987C17.4492 0.656028 17.3493 0.508232 17.2236 0.384183C17.0978 0.260134 16.9487 0.162304 16.7848 0.096373C16.6209 0.0304424 16.4456 -0.00227425 16.269 0.000122803H10.9357ZM1.60232 6.66679V28.0001C1.60232 29.4735 2.79566 30.6668 4.26899 30.6668H22.9357C24.409 30.6668 25.6023 29.4735 25.6023 28.0001V6.66679H1.60232Z" fill="#F8F8F2"/>
</svg>
