<svg width="224" height="224" viewBox="0 0 224 224" fill="none" xmlns="http://www.w3.org/2000/svg">
<path d="M29.0972 50.1573C25.5314 54.1695 26.2248 69.2629 30.88 89.515L33.4553 100.31L30.5829 103.844C28.9981 105.755 24.8381 109.385 21.2724 111.964L14.9333 116.645L19.1924 115.976C25.6305 115.021 35.4362 110.436 47.6191 102.602C64.3581 91.9032 66.8343 90.4702 72.6781 88.5597C79.8095 86.1715 89.8133 86.1715 95.261 88.5597C100.312 90.7568 106.75 96.2975 109.623 100.787L111.802 104.226L113.882 101.456C122.4 90.0881 129.531 86.267 141.219 86.9357C150.728 87.5089 157.265 90.2792 174.895 101.552C189.158 110.627 198.27 115.021 204.808 115.976L209.067 116.549L204.015 113.206C196.389 108.143 190.446 101.169 191.139 98.208C196.091 75.8544 196.884 70.9825 197.082 62.767C197.181 56.2711 196.785 52.8321 195.695 50.9215C194.309 48.4378 193.912 48.3422 189.059 48.8199C183.215 49.393 168.754 55.6979 160.137 61.3341L154.789 64.7731L144.785 60.0922C131.611 53.7873 124.381 52.0678 112 51.9723C99.52 51.9723 92.2895 53.7873 79.1162 59.9967L68.9143 64.8686L63.2686 61.143C52.8686 54.3605 39.0019 48.5333 33.2572 48.5333C31.7714 48.5333 29.8895 49.2975 29.0972 50.1573Z" fill="#BD93F9"/>
<path d="M70.8952 105.468C67.9237 106.233 58.5142 110.054 50.0952 113.97C35.238 120.848 25.4323 124.001 18.499 124.001C15.3294 124.001 15.2304 124.096 15.8247 127.058C16.6171 130.974 21.4704 138.139 25.9275 142.056C32.8609 148.169 48.6094 157.722 62.4761 164.123C77.0361 171.001 81.7904 172.625 81.7904 171.001C81.7904 170.523 81.0971 168.421 80.2056 166.415C77.7294 160.684 79.4132 156.767 87.5352 150.176C99.5199 140.432 102.59 135.273 102.59 124.765C102.59 117.887 100.708 113.684 95.6571 109.289C89.8132 104.226 81.0971 102.889 70.8952 105.468ZM87.8323 118.174C92.3885 122.568 91.1999 128.873 85.3561 131.165C75.4513 135.178 68.3199 121.326 77.8285 116.645C81.7904 114.735 84.6628 115.212 87.8323 118.174Z" fill="#BD93F9"/>
<path d="M135.969 105.182C127.055 107.952 121.409 115.403 121.409 124.765C121.409 134.987 124.975 141.196 135.474 149.411C143.992 156.098 145.973 159.633 144.289 165.173C143.596 167.275 142.804 169.759 142.507 170.619C142.011 171.765 142.408 171.956 144.785 171.383C149.638 170.236 176.876 156.863 184.998 151.608C198.171 143.202 208.571 131.834 208.571 125.911C208.571 124.287 207.977 124.001 204.808 124.001C198.171 124.001 189.653 121.23 173.905 113.97C153.105 104.322 145.082 102.507 135.969 105.182ZM147.459 117.314C153.798 122.09 150.529 131.547 142.507 131.643C138.049 131.643 136.366 130.783 134.781 127.726C132.602 123.714 132.998 121.326 136.168 118.174C139.634 114.83 143.794 114.543 147.459 117.314Z" fill="#BD93F9"/>
<path d="M104.968 157.149C103.779 157.34 101.6 158.773 100.114 160.302C96.6476 163.741 97.341 167.657 102.095 171.669C108.038 176.732 115.863 176.732 121.905 171.669C125.57 168.517 127.055 164.314 125.471 161.448C123.391 157.722 113.189 155.525 104.968 157.149Z" fill="#BD93F9"/>
<path d="M29.0972 50.1573C25.5314 54.1695 26.2248 69.2629 30.88 89.515L33.4553 100.31L30.5829 103.844C28.9981 105.755 24.8381 109.385 21.2724 111.964L14.9333 116.645L19.1924 115.976C25.6305 115.021 35.4362 110.436 47.6191 102.602C64.3581 91.9032 66.8343 90.4702 72.6781 88.5597C79.8095 86.1715 89.8133 86.1715 95.261 88.5597C100.312 90.7568 106.75 96.2975 109.623 100.787L111.802 104.226L113.882 101.456C122.4 90.0881 129.531 86.267 141.219 86.9357C150.728 87.5089 157.265 90.2792 174.895 101.552C189.158 110.627 198.27 115.021 204.808 115.976L209.067 116.549L204.015 113.206C196.389 108.143 190.446 101.169 191.139 98.208C196.091 75.8544 196.884 70.9825 197.082 62.767C197.181 56.2711 196.785 52.8321 195.695 50.9215C194.309 48.4378 193.912 48.3422 189.059 48.8199C183.215 49.393 168.754 55.6979 160.137 61.3341L154.789 64.7731L144.785 60.0922C131.611 53.7873 124.381 52.0678 112 51.9723C99.52 51.9723 92.2895 53.7873 79.1162 59.9967L68.9143 64.8686L63.2686 61.143C52.8686 54.3605 39.0019 48.5333 33.2572 48.5333C31.7714 48.5333 29.8895 49.2975 29.0972 50.1573Z" fill="#BD93F9"/>
<path d="M70.8952 105.468C67.9237 106.233 58.5142 110.054 50.0952 113.97C35.238 120.848 25.4323 124.001 18.499 124.001C15.3294 124.001 15.2304 124.096 15.8247 127.058C16.6171 130.974 21.4704 138.139 25.9275 142.056C32.8609 148.169 48.6094 157.722 62.4761 164.123C77.0361 171.001 81.7904 172.625 81.7904 171.001C81.7904 170.523 81.0971 168.421 80.2056 166.415C77.7294 160.684 79.4132 156.767 87.5352 150.176C99.5199 140.432 102.59 135.273 102.59 124.765C102.59 117.887 100.708 113.684 95.6571 109.289C89.8132 104.226 81.0971 102.889 70.8952 105.468ZM87.8323 118.174C92.3885 122.568 91.1999 128.873 85.3561 131.165C75.4513 135.178 68.3199 121.326 77.8285 116.645C81.7904 114.735 84.6628 115.212 87.8323 118.174Z" fill="#BD93F9"/>
<path d="M135.969 105.182C127.055 107.952 121.409 115.403 121.409 124.765C121.409 134.987 124.975 141.196 135.474 149.411C143.992 156.098 145.973 159.633 144.289 165.173C143.596 167.275 142.804 169.759 142.507 170.619C142.011 171.765 142.408 171.956 144.785 171.383C149.638 170.236 176.876 156.863 184.998 151.608C198.171 143.202 208.571 131.834 208.571 125.911C208.571 124.287 207.977 124.001 204.808 124.001C198.171 124.001 189.653 121.23 173.905 113.97C153.105 104.322 145.082 102.507 135.969 105.182ZM147.459 117.314C153.798 122.09 150.529 131.547 142.507 131.643C138.049 131.643 136.366 130.783 134.781 127.726C132.602 123.714 132.998 121.326 136.168 118.174C139.634 114.83 143.794 114.543 147.459 117.314Z" fill="#BD93F9"/>
<path d="M104.968 157.149C103.779 157.34 101.6 158.773 100.114 160.302C96.6476 163.741 97.341 167.657 102.095 171.669C108.038 176.732 115.863 176.732 121.905 171.669C125.57 168.517 127.055 164.314 125.471 161.448C123.391 157.722 113.189 155.525 104.968 157.149Z" fill="#BD93F9"/>
</svg>
