<svg width="96" height="96" viewBox="0 0 96 96" fill="none" xmlns="http://www.w3.org/2000/svg">
<path d="M11.4286 0C5.14396 0 0 5.14396 0 11.4286V84.5714C0 90.856 5.14396 96 11.4286 96H84.5714C90.856 96 96 90.856 96 84.5714V11.4286C96 5.14396 90.856 0 84.5714 0H11.4286ZM11.4286 4.57143H84.5714C88.3851 4.57143 91.4286 7.61489 91.4286 11.4286V84.5714C91.4286 88.3851 88.3851 91.4286 84.5714 91.4286H11.4286C7.61489 91.4286 4.57143 88.3851 4.57143 84.5714V11.4286C4.57143 7.61489 7.61489 4.57143 11.4286 4.57143ZM29.7143 13.7143C29.4085 13.7149 29.1059 13.7768 28.8245 13.8965C28.5431 14.0161 28.2885 14.1909 28.0759 14.4107C27.9692 14.5185 27.8735 14.6366 27.7902 14.7634V14.7679C27.5544 15.1356 27.4289 15.5632 27.4286 16V82.2857C27.4287 82.6176 27.501 82.9454 27.6405 83.2465C27.7801 83.5476 27.9836 83.8147 28.2367 84.0292C28.4899 84.2438 28.7868 84.4006 29.1067 84.4888C29.4266 84.5771 29.7619 84.5946 30.0893 84.5402L43.8036 82.2545C44.3374 82.1656 44.8223 81.8903 45.1722 81.4775C45.5221 81.0647 45.7142 80.5411 45.7143 80V67.5937L50.2679 80.3437C50.3394 80.8018 50.5484 81.2273 50.8674 81.5638C51.1863 81.9002 51.6 82.1318 52.0536 82.2277C52.1009 82.2381 52.1485 82.2471 52.1964 82.2545L65.9107 84.5402C65.9861 84.5529 66.0621 84.5619 66.1384 84.567C66.2142 84.5722 66.2902 84.5737 66.3661 84.5714C66.9582 84.5505 67.5191 84.3005 67.9306 83.8741C68.342 83.4477 68.5717 82.8782 68.5714 82.2857V16C68.5714 15.3938 68.3305 14.8125 67.9019 14.3838C67.4732 13.9552 66.8919 13.7143 66.2857 13.7143H52.5714C51.9652 13.7143 51.3839 13.9552 50.9553 14.3838C50.5266 14.8125 50.2858 15.3938 50.2857 16V28.875L45.7054 15.5938C45.6126 15.0835 45.3491 14.6199 44.958 14.2792C44.567 13.9385 44.0717 13.7408 43.5536 13.7188C43.512 13.7161 43.4703 13.7146 43.4286 13.7143H29.7143ZM32.9554 18.2857H41.7991L50.3616 43.1205C50.3916 43.235 50.4304 43.3469 50.4777 43.4554L62.8705 79.3973L54.2723 77.9643L45.6339 53.7813C45.6017 53.662 45.5599 53.5455 45.5089 53.433L32.9554 18.2857ZM54.8571 18.2857H64V68.6473L54.8571 42.1295V18.2857ZM32 29.192L41.1429 54.7946V78.0625L32 79.5893V29.192Z" fill="white"/>
</svg>
