<svg width="96" height="96" viewBox="0 0 96 96" fill="none" xmlns="http://www.w3.org/2000/svg">
<path d="M20.5714 0C9.22971 0 0 9.22743 0 20.5714V75.4286C0 86.7726 9.22971 96 20.5714 96H75.4286C86.7703 96 96 86.7726 96 75.4286V20.5714C96 9.22743 86.7703 0 75.4286 0H20.5714ZM20.5714 4.57143H75.4286C84.2514 4.57143 91.4286 11.7509 91.4286 20.5714V75.4286C91.4286 84.2491 84.2514 91.4286 75.4286 91.4286H20.5714C11.7486 91.4286 4.57143 84.2491 4.57143 75.4286V20.5714C4.57143 11.7509 11.7486 4.57143 20.5714 4.57143ZM49.6964 25.1741C37.7787 25.1741 27.3301 31.3996 21.625 40.6339C21.5336 40.7802 21.6366 40.9774 21.808 40.9911L23.1161 41.5C23.2829 41.5137 23.4398 41.4319 23.5313 41.2902C28.9004 32.737 38.5805 26.9911 49.7188 26.9911C62.9713 26.9911 74.19 35.1095 78.4643 46.4375C78.5306 46.6112 78.6965 46.7277 78.8839 46.7277H80.2455C80.4055 46.7277 80.5169 46.566 80.4643 46.4152C76.1077 34.0769 63.9661 25.1741 49.6964 25.1741ZM16.9063 42.0714C15.8952 42.0301 14.8205 42.0623 13.5759 42.1429C8.59761 42.4651 8.60129 44.9534 9.80357 45.0357C10.5144 45.0837 10.9169 45.1356 11.1295 45.1607C11.3078 45.1813 11.3334 45.138 11.3929 45.058C11.4431 44.9895 11.4659 44.8831 11.4911 44.8214C11.5345 44.7094 11.4845 44.597 11.3839 44.5536C11.2811 44.5079 10.125 43.9955 10.125 43.9955C10.125 43.9955 16.389 42.3893 24.1741 46.1607C31.9593 49.9321 33.966 54.8319 31.7991 57.2411C29.6323 59.6502 25.8614 60.8571 21.2054 59.8125C21.1254 56.5211 21.2857 54.1116 21.2857 54.1116C21.2857 54.1116 25.621 53.9477 26.7455 54.75C27.7055 55.4357 27.1421 55.8888 26.5089 56.1563C26.3992 56.202 26.3928 56.3982 26.4911 56.4554C27.3894 56.9536 28.1009 57.0699 28.75 56.2768C29.4723 55.3945 30.2761 51.6216 21.4464 51.8616C21.2864 50.337 21.7712 49.2924 20.4866 47.7679C19.202 46.2341 19.2009 51.9375 19.2009 51.9375C19.2009 51.9375 15.9077 52.4146 13.1786 54.3438C10.4494 56.2729 18.7991 60.9286 18.7991 60.9286C18.7991 60.9286 18.9561 63.0166 20.1607 63.2589C21.3653 63.4989 21.2857 61.7321 21.2857 61.7321C21.2857 61.7321 28.5098 63.8207 33.3304 59.567C38.1441 55.3087 33.6461 48.4863 27.2232 45.3571C22.4061 43.0086 19.9395 42.1954 16.9063 42.0714ZM39.0446 43.1875C38.6308 43.1499 38.1465 43.1876 37.5848 43.3482C35.338 43.9905 32.5289 46.9594 34.5357 48.8839C34.5357 49.7662 34.7754 51.4531 35.9777 49.9286C37.26 50.4931 39.7503 50.0935 41.3571 48.4866C42.9617 46.882 43.6841 43.907 40.875 44.067C40.875 44.067 40.2863 43.3003 39.0446 43.1875ZM37.7411 44.875C37.7411 44.875 35.5768 46.6381 35.2545 47.6027C35.0122 46.3981 35.6542 45.275 37.7411 44.875ZM40.7768 45.3973C42.1273 45.2331 41.4449 46.9914 40.3929 47.7634C39.1883 48.6457 37.9825 48.8889 36.5402 48.4866C36.5402 48.4866 37.8201 46.4783 40.067 45.5938C40.3478 45.4835 40.5839 45.4208 40.7768 45.3973ZM80.942 49.0313C80.286 49.0313 80.1841 49.0357 79.567 49.0357C79.3887 49.0403 79.2668 49.2103 79.3125 49.3795C79.5136 50.1178 79.8058 51.9998 79.9018 54.1027H75.3125C75.1708 54.1027 75.0515 54.2177 75.0446 54.3571L74.9241 55.5759C74.915 55.7702 75.0825 55.9313 75.2768 55.9107L79.9598 55.9241C79.9873 57.6475 79.999 58.6828 79.8527 60.5045C79.8344 60.6256 79.9301 60.7298 80.0536 60.7366C80.7896 60.7823 81.2524 60.8392 81.5313 60.8438C81.6433 60.846 81.7364 60.7593 81.7455 60.6473C81.789 60.0622 81.8963 58.2279 81.8438 55.933L86.5982 55.9464C86.7468 55.9464 86.8661 55.8271 86.8661 55.6786V54.3661C86.8729 54.2221 86.749 54.1071 86.6027 54.1071H81.7723C81.6718 52.5094 81.477 50.8032 81.125 49.2009C81.1067 49.1118 81.0334 49.0381 80.942 49.0313ZM53.125 50.0402C52.444 50.0053 53.197 52.4404 53.317 52.9821C53.477 53.7044 54.1205 56.4335 54.1205 57.558C53.3183 56.3535 52.0308 53.9437 50.9063 52.8214C49.7817 51.6969 49.4643 52.6607 49.4643 52.6607C49.4643 52.6607 48.3384 56.7526 48.6607 59.4018C48.983 62.0509 50.3463 60.2041 50.4286 59.4018C50.5086 58.5995 50.6696 55.95 50.6696 55.2277C51.3919 56.8323 52.515 58.6824 53.3973 59.567C54.2796 60.4493 55.1666 59.8871 55.4866 59.0848C55.8089 58.2825 56.8508 53.9472 54.3616 51.058C53.7399 50.3358 53.352 50.0518 53.125 50.0402ZM67.6116 51.5089C67.3139 51.4506 66.8795 51.6161 66.8795 51.6161C66.8795 51.6161 62.7845 55.0663 64.5491 59C63.3445 61.9691 61.4185 66.2241 64.2277 68.4732C64.95 68.9532 64.7086 67.5099 64.9509 66.7054C65.1932 65.9008 65.9968 61.8121 66.7991 60.6875C68.726 60.5275 72.1743 59.8031 72.7366 54.5848C72.9812 51.2134 69.9345 51.9338 68.7277 53.1384C67.5231 54.343 65.4375 57.4777 65.4375 57.4777C65.6798 55.3908 66.2378 54.8279 67.5223 52.7411C68.0709 51.8496 67.9093 51.5672 67.6116 51.5089ZM44.7946 51.5357C43.3195 51.5357 41.4756 51.7743 39.9911 52.7366C38.5465 53.6989 38.9477 55.4691 39.75 55.5491C40.5523 55.6291 44.6426 55.7886 45.6071 56.4286C46.5717 57.0686 46.8124 57.5541 45.7679 58.1964C44.7233 58.8387 42.3976 59.1593 41.433 58.8393C40.4708 58.517 40.1506 56.832 41.9152 57.7143C43.682 58.5966 46.8901 57.5526 44.7232 56.8304C42.5564 56.1081 40.7898 56.2736 39.6652 57.0759C38.5406 57.8782 40.0704 59.565 41.3527 60.125C42.6373 60.685 45.0465 60.8466 46.4911 59.9643C47.9356 59.082 48.6572 55.7096 46.3304 55.1473C44.0012 54.5873 42.5557 54.6668 41.5134 54.5045C40.4688 54.3445 40.9538 53.9435 42.6384 53.7813C44.323 53.6213 45.5286 53.5413 46.9732 53.3036C48.4178 53.0613 48.4973 52.0168 47.375 51.7768C47.375 51.7768 46.2698 51.5357 44.7946 51.5357ZM62.3839 51.6964C61.2594 51.6164 58.8501 51.9368 57.2455 52.2545C55.641 52.5768 58.2902 53.7813 58.2902 53.7813C58.2902 53.7813 58.0499 54.585 57.7321 55.1473C56.7699 55.3073 56.8474 55.867 57.1696 56.5893C56.5274 58.2739 56.209 60.3622 58.0536 61.0045C59.9004 61.6468 62.0641 59.9634 62.9464 59.2411C63.8287 58.5188 62.7864 57.7972 61.9018 57.8795C61.0195 57.9595 58.4509 58.3571 58.4509 58.3571L59.0134 56.6741C59.0134 56.6741 60.6979 56.7538 62.0625 56.5938C63.4271 56.4338 62.4644 54.9107 61.9821 54.9107H59.7366L60.1384 53.7857C60.1384 53.7857 63.1047 53.7069 64.067 53.5446C65.0293 53.3846 63.5085 51.7764 62.3839 51.6964ZM36.8795 51.9241C36.7268 51.9692 36.5798 52.0987 36.4598 52.3393C36.4598 52.3393 36.0588 56.9948 36.2188 59.8839C36.2988 61.0885 38.2232 61.3273 38.2232 60.125C38.2232 58.9204 38.1444 54.103 37.9821 53.1384C37.8621 52.4167 37.3376 51.7889 36.8795 51.9241ZM71.2098 54.0446C71.5903 53.9919 71.7157 54.4345 71.2143 55.7902C70.412 57.957 67.683 58.2813 67.683 58.2813C67.683 58.2813 69.4481 55.3916 70.3304 54.5893C70.6621 54.2884 70.9815 54.0763 71.2098 54.0446ZM19.0357 54.1027L18.8795 59.2411C18.8795 59.2411 16.1496 58.1146 14.625 56.75C13.1004 55.3854 13.5813 55.1489 14.3036 54.9866C15.0259 54.8266 17.8334 54.1027 19.0357 54.1027Z" fill="white"/>
</svg>
