<svg width="96" height="96" viewBox="0 0 96 96" fill="none" xmlns="http://www.w3.org/2000/svg">
<path d="M12.9231 0C5.79692 0 0 5.79877 0 12.9231V83.0769C0 90.2012 5.79692 96 12.9231 96H83.0769C90.2031 96 96 90.2012 96 83.0769V12.9231C96 5.79877 90.2031 0 83.0769 0H12.9231ZM12.9231 3.69231H83.0769C88.1668 3.69231 92.3077 7.83323 92.3077 12.9231V83.0769C92.3077 88.1668 88.1668 92.3077 83.0769 92.3077H12.9231C7.83323 92.3077 3.69231 88.1668 3.69231 83.0769V12.9231C3.69231 7.83323 7.83323 3.69231 12.9231 3.69231ZM22.1178 19.3702V42.3606H27.8654V33.7392H32.1743V42.3606H37.9219V19.3702H32.1743V27.9916H27.8654V19.3702H22.1178ZM39.3606 19.3702V42.357H43.5252H44.9135V42.3606H49.0817C53.2485 42.3606 56.0264 39.805 56.0264 36.613C56.0264 35.8764 55.9188 35.1786 55.7416 34.5325C57.261 39.0961 61.5391 42.3606 66.6382 42.3606C73.0222 42.3606 78.1298 37.2512 78.1298 30.8654C78.1298 24.4795 73.0241 19.3702 66.6382 19.3702C61.5816 19.3702 57.3356 22.5819 55.7849 27.0865C55.9344 26.4718 56.0264 25.8138 56.0264 25.1178C56.0264 21.9258 53.2485 19.3702 49.0817 19.3702H39.3606ZM45.1046 25.1178H48.2488C49.255 25.1178 50.1346 25.9553 50.1346 26.9135C50.1346 27.8716 49.255 28.7127 48.2488 28.7127H45.1046V25.1178ZM66.6346 25.1178C69.8525 25.1178 72.3822 27.6475 72.3822 30.8654C72.3822 34.0832 69.8525 36.613 66.6346 36.613C63.4168 36.613 60.887 34.0832 60.887 30.8654C60.887 27.6475 63.4168 25.1178 66.6346 25.1178ZM66.6346 27.3462C64.6648 27.3462 63.1154 28.8937 63.1154 30.8654C63.1154 32.8371 64.6648 34.3846 66.6346 34.3846C68.6045 34.3846 70.1538 32.8371 70.1538 30.8654C70.1538 28.8937 68.6045 27.3462 66.6346 27.3462ZM55.5577 27.8149C55.2937 28.786 55.1394 29.8057 55.1394 30.8654C55.1394 32.0008 55.3073 33.0912 55.6082 34.125C54.9491 32.1958 53.5548 30.8654 51.8582 30.8654C53.5899 30.8654 54.9023 29.6278 55.5577 27.8149ZM45.1046 33.0216H48.2488C49.255 33.0216 50.1346 33.861 50.1346 34.8173C50.1346 35.7736 49.255 36.613 48.2488 36.613H45.1046V33.0216ZM52.2873 44.1202C46.8706 44.1202 42.4651 49.1303 42.4651 55.2909C42.4651 61.4515 46.8725 66.4615 52.2873 66.4615C54.8331 66.4615 57.1483 65.343 58.8966 63.53V64.0529C58.8966 65.1643 59.7973 66.0649 60.9087 66.0649H62.9207V44.5132H60.9087C59.7973 44.5132 58.8966 45.412 58.8966 46.5252V47.0481C57.1502 45.2352 54.8331 44.1202 52.2873 44.1202ZM63.3065 44.5132L70.0998 53.7224C70.8475 54.7359 70.8475 56.1199 70.0998 57.1334L63.6166 65.9207H67.1647C68.0785 65.9207 68.9332 65.4853 69.476 64.7524L73.1647 59.7548C73.5099 59.2859 74.2077 59.2859 74.5529 59.7548L78.238 64.7524C78.7808 65.4872 79.639 65.9207 80.5529 65.9207H84.0974L77.6178 57.1334C76.8701 56.1199 76.8683 54.7377 77.6142 53.7224L84.4075 44.5132H80.863C79.9491 44.5132 79.0908 44.9486 78.5481 45.6815L74.5529 51.0974C74.2077 51.5663 73.5099 51.5663 73.1647 51.0974L69.1659 45.6815C68.6231 44.9467 67.7684 44.5132 66.8546 44.5132H63.3065ZM33.4002 44.6611C32.7829 44.6395 32.1481 44.6872 31.5036 44.8125C29.711 45.1596 28.1999 46.1515 27.0793 47.4844C25.2775 45.3982 22.453 44.2143 19.381 44.8125C15.5521 45.5602 12.9231 49.1507 12.9231 53.0553V64.0529C12.9231 65.1643 13.8237 66.0649 14.9351 66.0649H16.9471V52.7308C16.9471 50.4988 18.7608 48.6815 20.9928 48.6815C23.2248 48.6815 25.0421 50.4988 25.0421 52.7308V64.0529C25.0421 65.1643 25.9427 66.0649 27.0541 66.0649H29.0625V52.7308C29.0625 50.4988 30.8798 48.6815 33.1118 48.6815C35.3438 48.6815 37.1611 50.4988 37.1611 52.7308V64.0529C37.1611 65.1643 38.0598 66.0649 39.1731 66.0649H41.1851V52.7308C41.1916 48.3757 37.7216 44.812 33.4002 44.6611ZM52.2873 48.1406C55.4848 48.1406 58.0889 51.3439 58.0889 55.2873C58.0889 59.2306 55.4885 62.4339 52.2873 62.4339C49.086 62.4339 46.4892 59.2306 46.4892 55.2873C46.4892 51.3457 49.0897 48.1406 52.2873 48.1406ZM11.0769 77.5385C10.0578 77.5385 9.23077 78.3655 9.23077 79.3846V83.0769C9.23077 84.096 10.0578 84.9231 11.0769 84.9231C12.096 84.9231 12.9231 84.096 12.9231 83.0769V79.3846C12.9231 78.3655 12.096 77.5385 11.0769 77.5385ZM20.3077 77.5385C19.2886 77.5385 18.4615 78.3655 18.4615 79.3846V83.0769C18.4615 84.096 19.2886 84.9231 20.3077 84.9231C21.3268 84.9231 22.1538 84.096 22.1538 83.0769V79.3846C22.1538 78.3655 21.3268 77.5385 20.3077 77.5385ZM29.5385 77.5385C28.5194 77.5385 27.6923 78.3655 27.6923 79.3846V83.0769C27.6923 84.096 28.5194 84.9231 29.5385 84.9231C30.5575 84.9231 31.3846 84.096 31.3846 83.0769V79.3846C31.3846 78.3655 30.5575 77.5385 29.5385 77.5385ZM38.7692 77.5385C37.7502 77.5385 36.9231 78.3655 36.9231 79.3846V83.0769C36.9231 84.096 37.7502 84.9231 38.7692 84.9231C39.7883 84.9231 40.6154 84.096 40.6154 83.0769V79.3846C40.6154 78.3655 39.7883 77.5385 38.7692 77.5385ZM48 77.5385C46.9809 77.5385 46.1538 78.3655 46.1538 79.3846V83.0769C46.1538 84.096 46.9809 84.9231 48 84.9231C49.0191 84.9231 49.8462 84.096 49.8462 83.0769V79.3846C49.8462 78.3655 49.0191 77.5385 48 77.5385ZM57.2308 77.5385C56.2117 77.5385 55.3846 78.3655 55.3846 79.3846V83.0769C55.3846 84.096 56.2117 84.9231 57.2308 84.9231C58.2498 84.9231 59.0769 84.096 59.0769 83.0769V79.3846C59.0769 78.3655 58.2498 77.5385 57.2308 77.5385ZM66.4615 77.5385C65.4425 77.5385 64.6154 78.3655 64.6154 79.3846V83.0769C64.6154 84.096 65.4425 84.9231 66.4615 84.9231C67.4806 84.9231 68.3077 84.096 68.3077 83.0769V79.3846C68.3077 78.3655 67.4806 77.5385 66.4615 77.5385ZM75.6923 77.5385C74.6732 77.5385 73.8462 78.3655 73.8462 79.3846V83.0769C73.8462 84.096 74.6732 84.9231 75.6923 84.9231C76.7114 84.9231 77.5385 84.096 77.5385 83.0769V79.3846C77.5385 78.3655 76.7114 77.5385 75.6923 77.5385ZM84.9231 77.5385C83.904 77.5385 83.0769 78.3655 83.0769 79.3846V83.0769C83.0769 84.096 83.904 84.9231 84.9231 84.9231C85.9422 84.9231 86.7692 84.096 86.7692 83.0769V79.3846C86.7692 78.3655 85.9422 77.5385 84.9231 77.5385Z" fill="white"/>
</svg>
