<svg width="96" height="66" viewBox="0 0 96 66" fill="none" xmlns="http://www.w3.org/2000/svg">
<path d="M7.00408 0.832657C5.24082 2.8898 5.58367 10.6286 7.88571 21.0122L9.15918 26.5469L7.73878 28.3592C6.9551 29.3388 4.89796 31.2 3.13469 32.5225L0 34.9225L2.10612 34.5796C5.2898 34.0898 10.1388 31.7388 16.1633 27.7225C24.4408 22.2367 25.6653 21.502 28.5551 20.5225C32.0816 19.298 37.0286 19.298 39.7225 20.5225C42.2204 21.649 45.4041 24.4898 46.8245 26.7918L47.902 28.5551L48.9306 27.1347C53.1429 21.3061 56.6694 19.3469 62.449 19.6898C67.151 19.9837 70.3837 21.4041 79.102 27.1837C86.1551 31.8367 90.6612 34.0898 93.8939 34.5796L96 34.8735L93.502 33.1592C89.7306 30.5633 86.7918 26.9878 87.1347 25.4694C89.5837 14.0082 89.9755 11.5102 90.0735 7.29796C90.1225 3.96735 89.9265 2.20409 89.3878 1.22449C88.702 -0.0489769 88.5061 -0.0979576 86.1061 0.146942C83.2163 0.440819 76.0653 3.67347 71.8041 6.56327L69.1592 8.32653L64.2122 5.92653C57.698 2.69388 54.1224 1.81225 48 1.76327C41.8286 1.76327 38.2531 2.69388 31.7388 5.87755L26.6939 8.37551L23.902 6.46531C18.7592 2.98776 11.902 3.8147e-06 9.06122 3.8147e-06C8.32653 3.8147e-06 7.39592 0.391842 7.00408 0.832657Z" fill="#F8F8F2"/>
<path d="M27.6735 29.1919C26.2041 29.5837 21.551 31.5429 17.3877 33.5511C10.0408 37.0776 5.19183 38.6939 1.76326 38.6939C0.195912 38.6939 0.146933 38.7429 0.44081 40.2613C0.832647 42.2694 3.23265 45.9429 5.43673 47.9511C8.8653 51.0857 16.6531 55.9837 23.5102 59.2653C30.7102 62.7919 33.0612 63.6245 33.0612 62.7919C33.0612 62.547 32.7184 61.4694 32.2775 60.4408C31.0531 57.5021 31.8857 55.4939 35.902 52.1143C41.8286 47.1184 43.3469 44.4735 43.3469 39.0857C43.3469 35.5592 42.4163 33.4041 39.9184 31.1511C37.0286 28.5551 32.7184 27.8694 27.6735 29.1919ZM36.049 35.7062C38.302 37.9592 37.7143 41.1919 34.8245 42.3674C29.9265 44.4245 26.4 37.3225 31.102 34.9225C33.0612 33.9429 34.4816 34.1878 36.049 35.7062Z" fill="#F8F8F2"/>
<path d="M59.8531 29.0449C55.4449 30.4653 52.6531 34.2857 52.6531 39.0857C52.6531 44.3266 54.4163 47.5102 59.6082 51.7225C63.8204 55.151 64.8 56.9633 63.9674 59.8041C63.6245 60.8817 63.2327 62.1551 63.0857 62.5959C62.8408 63.1837 63.0367 63.2817 64.2123 62.9878C66.6123 62.4 80.0816 55.5429 84.098 52.849C90.6123 48.5388 95.7551 42.7102 95.7551 39.6735C95.7551 38.8408 95.4612 38.6939 93.8939 38.6939C90.6123 38.6939 86.4 37.2735 78.6123 33.551C68.3265 28.6041 64.3592 27.6735 59.8531 29.0449ZM65.5347 35.2653C68.6694 37.7143 67.0531 42.5633 63.0857 42.6123C60.8816 42.6123 60.049 42.1715 59.2653 40.6041C58.1878 38.547 58.3837 37.3225 59.951 35.7061C61.6653 33.9919 63.7225 33.8449 65.5347 35.2653Z" fill="#F8F8F2"/>
<path d="M44.5229 55.6898C43.9351 55.7878 42.8575 56.5225 42.1228 57.3062C40.4086 59.0694 40.7514 61.0776 43.1024 63.1347C46.0412 65.7306 49.9106 65.7306 52.8984 63.1347C54.7106 61.5184 55.4453 59.3633 54.6616 57.8939C53.6331 55.9837 48.5882 54.8572 44.5229 55.6898Z" fill="#F8F8F2"/>
</svg>
