<svg width="96" height="96" viewBox="0 0 96 96" fill="none" xmlns="http://www.w3.org/2000/svg">
<path d="M20.5714 0C9.22971 0 0 9.22743 0 20.5714V75.4286C0 86.7726 9.22971 96 20.5714 96H75.4286C86.7703 96 96 86.7726 96 75.4286V20.5714C96 9.22743 86.7703 0 75.4286 0H20.5714ZM20.5714 4.57143H75.4286C84.2514 4.57143 91.4286 11.7509 91.4286 20.5714V75.4286C91.4286 84.2491 84.2514 91.4286 75.4286 91.4286H20.5714C11.7486 91.4286 4.57143 84.2491 4.57143 75.4286V20.5714C4.57143 11.7509 11.7486 4.57143 20.5714 4.57143ZM43.2991 17.7902C42.042 17.7902 41.3035 18.4024 41.2098 19.5179C41.1481 20.6493 41.8094 21.3084 42.7054 21.4821C43.0505 21.5439 43.4093 21.5439 43.7545 21.4821C44.5728 21.3564 45.1883 20.6955 45.25 19.8795C45.3277 18.9218 44.8882 18.1808 44.0402 17.8973C43.8048 17.8196 43.5505 17.7742 43.2991 17.7902ZM24.6964 23.0491C23.464 23.0454 22.3245 23.457 21.2634 24.2455C21.1697 24.3393 21.0588 24.4204 20.933 24.4821C20.901 24.4661 20.875 24.449 20.875 24.433C20.827 24.2753 20.7935 24.1175 20.7455 23.9598C20.6198 23.5667 20.463 23.4241 20.0402 23.4241C19.5693 23.4241 19.0825 23.4401 18.6116 23.4241C18.2505 23.4081 17.9211 23.4599 17.6696 23.7411C17.6696 29.2382 17.6715 34.751 17.6875 40.2321C17.8909 40.5613 18.2058 40.6231 18.567 40.6071C19.1315 40.5911 19.6988 40.6071 20.2634 40.6071C21.2531 40.6071 21.2545 40.6076 21.2545 39.6339V35.1607C21.2545 35.051 21.2028 34.9241 21.3125 34.8304C22.0988 35.4429 23.0594 35.8215 24.0491 35.9152C25.432 36.0569 26.6874 35.7119 27.7411 34.7679C28.5114 34.0616 29.0756 33.1486 29.375 32.1429C29.7956 30.8606 29.824 29.5555 29.7143 28.2366C29.6526 27.4206 29.4318 26.6178 29.1027 25.8795C28.4581 24.5286 27.4661 23.5371 25.9598 23.192C25.5278 23.0977 25.1073 23.0504 24.6964 23.0491ZM55.4598 23.058C55.0673 23.058 54.6744 23.0997 54.2813 23.1786C53.2595 23.366 52.3506 23.8178 51.4866 24.3527C51.3769 24.4167 51.2827 24.5268 51.125 24.5268C51.0473 24.2914 51.0018 24.0855 50.9241 23.8661C50.8281 23.6009 50.654 23.4286 50.3705 23.4286H48.4107C48.2233 23.4286 48.0305 23.5403 47.9688 23.7277C47.9368 23.8534 47.9241 23.9814 47.9241 24.1071V35.0045C47.9241 35.537 48.0608 35.6964 48.6116 35.6964H50.7188C51.2993 35.6964 51.4241 35.5716 51.4241 34.9911V26.6161C51.3944 26.4904 51.4725 26.349 51.5982 26.317C52.4485 25.9078 53.4065 25.7195 54.3482 25.7813C54.8831 25.811 55.3367 26.1884 55.4464 26.7232C55.5081 26.9884 55.5268 27.2728 55.5268 27.5402V34.9688C55.5268 35.5493 55.6516 35.692 56.2321 35.692H57.8929C58.1443 35.692 58.3806 35.6901 58.6161 35.6741C58.8355 35.6741 59.0089 35.5185 59.0089 35.2991C59.0409 35.1437 59.0402 35.0015 59.0402 34.8438V26.5848C59.0242 26.4591 59.102 26.3311 59.2277 26.2991C60.0757 25.906 61.0073 25.7195 61.933 25.7813C62.4359 25.8133 62.8743 26.156 63 26.6429C63.0777 26.9263 63.1098 27.2095 63.0938 27.5089V34.7813C63.0938 34.955 63.093 35.1254 63.125 35.2991C63.157 35.4865 63.3126 35.6447 63.5 35.6607C63.6257 35.6767 63.7538 35.6786 63.8795 35.6786H65.7946C66.5009 35.6786 66.5938 35.5858 66.5938 34.8795V26.7411C66.5938 26.5514 66.5964 26.3835 66.5804 26.2098C66.5164 25.3938 66.293 24.6394 65.6964 24.0268C65.0679 23.3685 64.2531 23.115 63.3571 23.067C62.116 23.0053 60.8896 23.2881 59.7902 23.8527C59.365 24.0721 58.9601 24.3226 58.567 24.558C58.551 24.526 58.533 24.5294 58.5536 24.5134C58.5216 24.4814 58.4918 24.4498 58.4598 24.4018C58.037 23.7732 57.3767 23.3363 56.6384 23.1786C56.2453 23.0997 55.8524 23.058 55.4598 23.058ZM75.3973 23.1652C74.8733 23.114 74.3471 23.1223 73.8214 23.192C71.3391 23.4754 69.7204 24.844 68.9821 27.2143C68.4633 28.8326 68.528 30.4818 68.9509 32.1161C69.5018 34.2052 70.8841 35.4451 72.9732 35.8839C74.1664 36.1514 75.3715 36.1026 76.567 35.9152C77.1955 35.8055 77.8275 35.6461 78.4241 35.4107C78.7853 35.269 78.9758 35.052 78.9598 34.6429C78.9438 34.2657 78.9598 33.873 78.9598 33.4821C78.9598 33.0113 78.7696 32.868 78.3125 32.9777C77.8554 33.0874 77.4191 33.1808 76.9643 33.2768C75.9906 33.4802 74.9826 33.4795 74.0089 33.308C72.6741 33.0406 71.8107 31.897 71.8884 30.4821C72.0278 30.4981 72.1842 30.5126 72.3259 30.5446C73.503 30.7641 74.7134 30.7812 75.8929 30.5938C76.5831 30.5 77.2446 30.2934 77.8571 29.9643C78.5634 29.5551 79.0797 28.9916 79.2991 28.2054C79.85 26.2259 78.9991 24.2271 76.942 23.4911C76.4391 23.3265 75.9213 23.2163 75.3973 23.1652ZM39.375 23.3036C38.3533 23.2259 37.3339 23.5411 36.5179 24.1696C36.2024 24.4188 35.904 24.6853 35.6205 24.9688C35.5565 25.0625 35.4624 25.1243 35.3527 25.1563C35.259 24.7334 35.1656 24.3395 35.0536 23.9509C34.9439 23.5578 34.7574 23.4152 34.3482 23.4152H32.8393C32.117 23.4152 32.0402 23.4965 32.0402 24.2188V34.8973C32.0402 35.023 32.0376 35.1511 32.0536 35.2768C32.0696 35.4825 32.2296 35.6536 32.433 35.6696C32.5428 35.6856 32.6671 35.683 32.7768 35.683H34.8214C34.9311 35.683 35.0555 35.6856 35.1652 35.6696C35.3686 35.6696 35.5286 35.5115 35.5446 35.308C35.5606 35.1663 35.558 35.039 35.558 34.8973V27.3616C35.558 27.1879 35.5574 27.0286 35.7768 26.9509C36.7665 26.6218 37.7879 26.4197 38.8393 26.5134C39.0587 26.5294 39.2672 26.5428 39.4866 26.5268C39.7678 26.4948 39.8803 26.3861 39.942 26.1027C39.974 25.8833 39.9892 25.6793 39.9732 25.4598C39.9732 24.925 39.9874 24.3741 39.9554 23.8393C39.9256 23.4461 39.7841 23.3196 39.375 23.3036ZM42.0134 23.4107C41.6363 23.4267 41.4937 23.5693 41.4777 23.9464V29.5223C41.4777 31.3143 41.4803 33.102 41.4643 34.8438C41.4643 34.9695 41.4617 35.0975 41.4777 35.2232C41.4937 35.4449 41.6824 35.6179 41.9018 35.6339C41.9795 35.6499 42.0473 35.6473 42.125 35.6473H44.308C44.4018 35.6473 44.4822 35.6499 44.5759 35.6339C44.7793 35.6179 44.9349 35.4758 44.9509 35.2723C44.9669 35.0986 44.9821 34.9237 44.9821 34.75V24.2946C44.9821 24.1529 44.9848 24.0256 44.9688 23.8839C44.9368 23.5228 44.8254 23.4107 44.4643 23.4107C43.6483 23.3947 42.8294 23.3947 42.0134 23.4107ZM74.7009 25.5804C74.9843 25.5964 75.2638 25.6581 75.5313 25.7679C75.9404 25.9416 76.2065 26.3201 76.2545 26.7589C76.3025 27.0264 76.2854 27.3108 76.2054 27.5759C76.0179 28.1405 75.562 28.3746 75.0134 28.4866C74.6843 28.5643 74.3385 28.5945 73.9911 28.5625C73.3785 28.5625 72.751 28.5178 72.1384 28.4241C71.903 28.3944 71.901 28.3943 71.933 28.1429C71.981 27.7657 72.0904 27.4032 72.2321 27.058C72.703 25.9106 73.6952 25.5186 74.7009 25.5804ZM23.5491 25.7143C23.779 25.7167 24.0146 25.7389 24.25 25.7857C24.9106 25.8794 25.4736 26.3026 25.7411 26.9152C25.9765 27.418 26.1198 27.967 26.1518 28.5179C26.2455 29.5213 26.2433 30.5289 25.9598 31.4866C25.8501 31.9735 25.6022 32.4096 25.2411 32.7411C24.8319 33.0862 24.3272 33.2946 23.7946 33.2946C22.9946 33.3426 22.2063 33.1673 21.5 32.7902C21.3263 32.7125 21.2161 32.5401 21.2321 32.3527V29.5089C21.2321 28.5672 21.2481 27.6248 21.2321 26.683C21.2161 26.4636 21.3457 26.2741 21.5491 26.1964C22.1971 25.8896 22.8593 25.7071 23.5491 25.7143ZM33.2321 40.9821C33.1156 40.9661 32.9983 40.9817 32.8795 41C31.8852 41.0846 31.1605 41.7729 31.0759 42.7009C30.9753 43.862 31.5135 44.6704 32.558 44.9241C32.7432 44.9561 32.9265 44.9911 33.1116 44.9911C34.4762 45.0254 35.5054 44.2525 35.3705 42.7188C35.3385 42.0102 34.886 41.4055 34.2277 41.1518C33.9077 41.0169 33.5681 40.9479 33.2321 40.9821ZM47.3214 41.0982C46.6814 41.0982 46.5625 41.2171 46.5625 41.8571V47.317C46.5625 47.4358 46.6114 47.5553 46.5268 47.6741C46.3759 47.6581 46.293 47.5529 46.1741 47.4866C44.421 46.458 42.5837 46.2745 40.7277 47.1339C39.4294 47.7396 38.6238 48.8379 38.1027 50.1339C37.5975 51.3819 37.4746 52.6965 37.5089 54.0268C37.5089 55.2748 37.795 56.5008 38.3527 57.6116C38.9927 58.8413 39.9238 59.7874 41.2723 60.192C43.11 60.7657 44.8271 60.4781 46.3929 59.317C46.5117 59.2507 46.5768 59.1325 46.7277 59.0982C46.8123 59.2834 46.8809 59.4864 46.9152 59.6875C46.9815 59.9572 47.2188 60.1429 47.5045 60.1429H47.9107C48.5164 60.1429 49.1044 60.1589 49.6964 60.1429C50.1673 60.1429 50.3031 59.9891 50.3214 59.5V41.7411C50.3054 41.2176 50.1703 41.0982 49.6652 41.0982H47.3214ZM73.0714 46.5982C72.5346 46.5794 71.9948 46.613 71.4554 46.6964C69.1811 47.0324 67.5453 48.2441 66.7545 50.4018C65.9796 52.4589 65.9975 54.7175 66.7723 56.7723C67.4466 58.642 68.7939 59.8256 70.7321 60.3125C71.7607 60.5662 72.8368 60.633 73.8973 60.4821C77.4356 60.0616 78.903 57.3781 79.1384 55.0536C79.1384 55.0536 79.2232 54.3557 79.2232 54.0357L79.2054 52.625C79.2214 52.433 79.1563 52.0383 79.1563 52.0223C79.122 51.7023 79.0578 51.3799 78.9732 51.0759C78.3492 48.8519 76.9484 47.3839 74.6741 46.8125C74.1427 46.6856 73.6083 46.6171 73.0714 46.5982ZM59.0848 46.7455C56.2528 46.8118 54.0965 48.2439 53.2188 51.0759C52.629 52.9456 52.7143 54.8535 53.2857 56.7232C53.8754 58.6455 55.2273 59.8069 57.1473 60.3304C57.9725 60.5315 58.8307 60.6168 59.6741 60.5848C60.9038 60.5688 62.1312 60.3294 63.2946 59.8929C63.7838 59.7077 63.9018 59.539 63.9018 59.0179V57.8036C63.8858 57.3144 63.6811 57.1445 63.192 57.2634C62.8217 57.364 62.4685 57.4511 62.0982 57.5357C60.9691 57.8054 59.7903 57.8529 58.6429 57.6518C57.4977 57.4324 56.7214 56.7769 56.4196 55.6295C56.3351 55.2935 56.2664 54.957 56.2321 54.6027C56.3167 54.6027 56.4025 54.5996 56.4688 54.6339C57.5842 54.8328 58.7146 54.9194 59.8438 54.8348C60.822 54.7685 61.7964 54.5825 62.6741 54.1116C63.5678 53.6728 64.1899 52.8444 64.375 51.8661C64.4939 51.2604 64.4965 50.6191 64.3616 50.0134C64.0073 48.4957 63.0474 47.5561 61.5982 47.067C60.7891 46.8133 59.9283 46.7113 59.0848 46.7455ZM16.9509 47.0134C16.6126 47.0134 16.4944 47.1819 16.5446 47.5179C16.5949 47.7373 16.6673 47.9774 16.7679 48.1786C17.7804 50.8414 18.8067 53.4871 19.817 56.1339C20.2375 57.2448 20.6776 58.3735 21.0982 59.4866C21.2834 59.9575 21.5837 60.1901 22.1071 60.1741C22.8477 60.1581 23.5898 60.1581 24.3304 60.1741C24.7029 60.2084 25.0553 59.9748 25.1741 59.6205C25.2084 59.5177 25.2604 59.4175 25.2946 59.317C26.4238 56.3844 27.5539 53.437 28.683 50.5045L29.692 47.8259C29.9114 47.2179 29.7739 47.0313 29.1339 47.0313H26.5759C26.2719 47.0313 25.9819 47.2139 25.8973 47.5179L25.7991 47.8259C25.0243 50.4385 24.2481 53.0303 23.4732 55.6429C23.3704 55.9789 23.2702 56.3024 23.1696 56.6384C23.1376 56.6384 23.1179 56.6365 23.1339 56.6205C22.4414 54.2777 21.7706 51.9188 21.0804 49.5759C20.8769 48.9359 20.6896 48.2784 20.5045 47.6384C20.4039 47.2841 20.2215 47.0134 19.817 47.0134C18.8753 47.0134 17.9109 46.9974 16.9509 47.0134ZM32.0045 47.0313C31.481 47.0313 31.3419 47.1819 31.3259 47.7054V59.3661C31.3259 59.4666 31.3278 59.5869 31.3438 59.6875C31.378 60.0075 31.5301 60.1741 31.8661 60.1741C32.7758 60.1901 33.6706 60.1901 34.5804 60.1741C34.9186 60.1581 35.0684 60.0056 35.1027 59.6696V53.6027V47.7054C35.1027 47.1819 34.952 47.0313 34.4286 47.0313H32.0045ZM58.7455 49.3304C58.9731 49.3096 59.2114 49.3136 59.4554 49.3393C59.5399 49.3393 59.6029 49.375 59.6875 49.375C60.8669 49.5601 61.1546 50.501 60.9375 51.4107C60.7684 52.085 60.2133 52.3388 59.5893 52.4554C59.2533 52.5216 58.8989 52.5562 58.5446 52.5402C57.8544 52.5242 57.1788 52.4734 56.5045 52.3705C56.3536 52.3545 56.2894 52.2915 56.3214 52.1384C56.4403 51.4801 56.591 50.8385 56.9955 50.2991C57.4635 49.6803 58.0628 49.3925 58.7455 49.3304ZM43.6964 49.4732C44.5901 49.3886 45.4833 49.5583 46.2902 49.9286C46.4913 49.9949 46.6098 50.1958 46.5938 50.4152C46.5618 51.462 46.5804 52.4737 46.5804 53.5V56.567C46.6146 56.7681 46.4976 56.9579 46.3125 57.0402C45.5034 57.495 44.5772 57.6795 43.6652 57.5446C42.8903 57.4601 42.2159 56.9917 41.8616 56.2991C41.5919 55.7597 41.4387 55.1835 41.3884 54.5938C41.2535 53.5309 41.3379 52.4527 41.5893 51.4241C41.6739 51.1384 41.7777 50.8724 41.9286 50.6027C42.2829 49.9444 42.9559 49.5235 43.6964 49.4732ZM72.4018 49.558C72.7218 49.5238 73.0416 49.5207 73.3616 49.5893C74.0359 49.7241 74.5933 50.164 74.8973 50.7857C75.183 51.3754 75.3496 52.036 75.3839 52.692C75.3999 52.996 75.4201 53.2942 75.4018 53.5982C75.4498 54.3434 75.3663 55.0686 75.1652 55.7589C75.0646 56.1132 74.9091 56.4326 74.692 56.7366C74.3217 57.26 73.7338 57.597 73.0938 57.6473C72.7738 57.6816 72.4539 57.6802 72.1339 57.6116C71.4254 57.4768 70.8348 57.0065 70.5491 56.3482C70.2954 55.8248 70.144 55.2568 70.0938 54.683C70.0092 53.6888 69.9923 52.6926 70.2277 51.7143C70.3123 51.3257 70.4819 50.941 70.683 50.6027C71.0533 49.997 71.6932 49.6083 72.4018 49.558ZM72.4018 65.5089C71.4441 65.5364 70.5017 65.6294 69.5714 65.8214C68.3669 66.1094 67.2313 66.5478 66.2188 67.2723C66.0542 67.3683 65.9133 67.5054 65.8036 67.6563C65.7076 67.8185 65.6674 67.9828 65.7634 68.1473C65.8594 68.3119 66.0271 68.3262 66.2054 68.3125L67.8571 68.1071C69.1029 67.9426 70.3611 67.8871 71.6205 67.942C72.0731 67.9694 72.5079 68.0504 72.933 68.1875C73.3833 68.3246 73.6872 68.7212 73.7009 69.1875C73.7283 69.4618 73.7149 69.7346 73.6875 70.0089C73.5915 70.7632 73.4382 71.5031 73.2188 72.2277C72.8485 73.5557 72.3863 74.8248 71.9063 76.1116C71.8514 76.2488 71.8262 76.3852 71.8125 76.5223C71.8262 76.7829 71.9894 76.9213 72.25 76.8527C72.4146 76.7978 72.5641 76.7038 72.6875 76.5804C73.3024 76.0066 73.8335 75.3451 74.2723 74.6205C75.4769 72.6091 76.2056 70.354 76.3839 68.0134C76.4114 67.6157 76.3941 67.2188 76.3393 66.8348C76.2981 66.508 76.0967 66.2083 75.7813 66.0848C75.5504 65.9751 75.3183 65.8945 75.0714 65.8259C74.196 65.5928 73.3046 65.5364 72.4018 65.5089ZM19.9911 66.2098C19.8954 66.2324 19.8052 66.2829 19.7366 66.3571C19.5995 66.5057 19.5606 66.7098 19.6429 66.9018C19.6977 67.0389 19.7921 67.1763 19.9018 67.2723C20.3681 67.7112 20.8191 68.1508 21.2991 68.5759C26.4443 73.1313 32.3403 76.2626 39.058 77.8214C41.0009 78.2717 42.9844 78.5724 44.9821 78.7232C45.7364 78.7781 46.4891 78.8071 47.2411 78.8482C47.7874 78.8345 48.3376 78.8345 48.8839 78.8482C51.0599 78.7659 53.2199 78.5313 55.3616 78.1473C59.0828 77.4502 62.6953 76.232 66.0759 74.5223C67.8679 73.6195 69.5658 72.54 71.1384 71.308C71.3304 71.1732 71.4796 70.9959 71.5893 70.7902C71.6167 70.7353 71.647 70.6665 71.6607 70.6116C71.7704 70.159 71.4972 69.6945 71.0446 69.5848C70.7704 69.5163 70.4701 69.5548 70.2232 69.692C68.5661 70.4577 66.8711 71.1183 65.1339 71.692C61.8356 72.7868 58.429 73.5656 54.9821 74.0045C53.5056 74.1965 52.026 74.3339 50.5357 74.375C47.7723 74.471 44.9953 74.3473 42.2455 74.0045C40.3301 73.7576 38.4282 73.4165 36.5402 72.9777C30.915 71.6657 25.5504 69.4484 20.6384 66.4107C20.5287 66.3421 20.4047 66.287 20.2813 66.2321C20.1864 66.191 20.0868 66.1873 19.9911 66.2098Z" fill="white"/>
</svg>
