<svg width="96" height="96" viewBox="0 0 96 96" fill="none" xmlns="http://www.w3.org/2000/svg">
<path d="M12.8 0C5.7504 0 0 5.7504 0 12.8V83.2C0 90.2496 5.7504 96 12.8 96H83.2C90.2496 96 96 90.2496 96 83.2V12.8C96 5.7504 90.2496 0 83.2 0H12.8ZM12.8 3.2H83.2C88.5216 3.2 92.8 7.4784 92.8 12.8V83.2C92.8 88.5216 88.5216 92.8 83.2 92.8H12.8C7.4784 92.8 3.2 88.5216 3.2 83.2V12.8C3.2 7.4784 7.4784 3.2 12.8 3.2ZM12.8 8C11.9168 8 11.2 8.7168 11.2 9.6C11.2 10.4832 11.9168 11.2 12.8 11.2C13.6832 11.2 14.4 10.4832 14.4 9.6C14.4 8.7168 13.6832 8 12.8 8ZM19.2 8C18.3168 8 17.6 8.7168 17.6 9.6C17.6 10.4832 18.3168 11.2 19.2 11.2C20.0832 11.2 20.8 10.4832 20.8 9.6C20.8 8.7168 20.0832 8 19.2 8ZM25.6 8C24.7168 8 24 8.7168 24 9.6C24 10.4832 24.7168 11.2 25.6 11.2C26.4832 11.2 27.2 10.4832 27.2 9.6C27.2 8.7168 26.4832 8 25.6 8ZM32 8C31.1168 8 30.4 8.7168 30.4 9.6C30.4 10.4832 31.1168 11.2 32 11.2C32.8832 11.2 33.6 10.4832 33.6 9.6C33.6 8.7168 32.8832 8 32 8ZM38.4 8C37.5168 8 36.8 8.7168 36.8 9.6C36.8 10.4832 37.5168 11.2 38.4 11.2C39.2832 11.2 40 10.4832 40 9.6C40 8.7168 39.2832 8 38.4 8ZM44.8 8C43.9168 8 43.2 8.7168 43.2 9.6C43.2 10.4832 43.9168 11.2 44.8 11.2C45.6832 11.2 46.4 10.4832 46.4 9.6C46.4 8.7168 45.6832 8 44.8 8ZM51.2 8C50.3168 8 49.6 8.7168 49.6 9.6C49.6 10.4832 50.3168 11.2 51.2 11.2C52.0832 11.2 52.8 10.4832 52.8 9.6C52.8 8.7168 52.0832 8 51.2 8ZM57.6 8C56.7168 8 56 8.7168 56 9.6C56 10.4832 56.7168 11.2 57.6 11.2C58.4832 11.2 59.2 10.4832 59.2 9.6C59.2 8.7168 58.4832 8 57.6 8ZM64 8C63.1168 8 62.4 8.7168 62.4 9.6C62.4 10.4832 63.1168 11.2 64 11.2C64.8832 11.2 65.6 10.4832 65.6 9.6C65.6 8.7168 64.8832 8 64 8ZM70.4 8C69.5168 8 68.8 8.7168 68.8 9.6C68.8 10.4832 69.5168 11.2 70.4 11.2C71.2832 11.2 72 10.4832 72 9.6C72 8.7168 71.2832 8 70.4 8ZM76.8 8C75.9168 8 75.2 8.7168 75.2 9.6C75.2 10.4832 75.9168 11.2 76.8 11.2C77.6832 11.2 78.4 10.4832 78.4 9.6C78.4 8.7168 77.6832 8 76.8 8ZM83.2 8C82.3168 8 81.6 8.7168 81.6 9.6C81.6 10.4832 82.3168 11.2 83.2 11.2C84.0832 11.2 84.8 10.4832 84.8 9.6C84.8 8.7168 84.0832 8 83.2 8ZM13.8531 35.5125V56.1281H19.3563V49.2688H21.0219L25.975 56.1438H32.2188L26.4 48.0563C28.5632 46.7891 29.9844 44.7215 29.9844 42.4031C29.9844 38.6031 26.2784 35.5125 21.7344 35.5125H13.8531ZM19.3531 38.9406H21.0531C22.9395 38.9406 24.4844 40.4847 24.4844 42.4031C24.4844 44.2895 22.9395 45.8329 21.0531 45.8313H19.3531V38.9406ZM38.4219 39.65C33.7531 39.65 29.9813 43.3907 29.9813 48.0563C29.9813 52.7267 33.7531 56.4688 38.4219 56.4688C43.0907 56.4688 46.8875 52.7267 46.8875 48.0563C46.8875 43.3907 43.0907 39.6516 38.4219 39.65ZM47.9594 39.9719V56.125H53.4594V49.5719L60.075 56.125H66.9969L58.5906 47.7188L65.5531 40.7594V50.3469C65.5531 53.5309 67.4682 56.4688 72.2906 56.4688C74.5802 56.4688 76.6792 55.1682 77.7 53.9938L80.1719 56.1281H81.3469V39.9938H75.8469V48.4V50.4406C75.2277 51.5222 74.3657 52.2 73.0313 52.2C71.6793 52.2 71.0563 51.3977 71.0563 48.8313V48.1531V39.9906H59.7969L53.4594 46.3281V39.9719H47.9594ZM38.4219 43.6406C39.9083 43.6406 41.1406 45.6162 41.1406 48.0594C41.1406 50.5026 39.9083 52.4813 38.4219 52.4813C36.9707 52.4813 35.7313 50.5042 35.7313 48.0594C35.7313 45.6146 36.9691 43.6406 38.4219 43.6406ZM12.8 84.8C11.9168 84.8 11.2 85.5168 11.2 86.4C11.2 87.2832 11.9168 88 12.8 88C13.6832 88 14.4 87.2832 14.4 86.4C14.4 85.5168 13.6832 84.8 12.8 84.8ZM19.2 84.8C18.3168 84.8 17.6 85.5168 17.6 86.4C17.6 87.2832 18.3168 88 19.2 88C20.0832 88 20.8 87.2832 20.8 86.4C20.8 85.5168 20.0832 84.8 19.2 84.8ZM25.6 84.8C24.7168 84.8 24 85.5168 24 86.4C24 87.2832 24.7168 88 25.6 88C26.4832 88 27.2 87.2832 27.2 86.4C27.2 85.5168 26.4832 84.8 25.6 84.8ZM32 84.8C31.1168 84.8 30.4 85.5168 30.4 86.4C30.4 87.2832 31.1168 88 32 88C32.8832 88 33.6 87.2832 33.6 86.4C33.6 85.5168 32.8832 84.8 32 84.8ZM38.4 84.8C37.5168 84.8 36.8 85.5168 36.8 86.4C36.8 87.2832 37.5168 88 38.4 88C39.2832 88 40 87.2832 40 86.4C40 85.5168 39.2832 84.8 38.4 84.8ZM44.8 84.8C43.9168 84.8 43.2 85.5168 43.2 86.4C43.2 87.2832 43.9168 88 44.8 88C45.6832 88 46.4 87.2832 46.4 86.4C46.4 85.5168 45.6832 84.8 44.8 84.8ZM51.2 84.8C50.3168 84.8 49.6 85.5168 49.6 86.4C49.6 87.2832 50.3168 88 51.2 88C52.0832 88 52.8 87.2832 52.8 86.4C52.8 85.5168 52.0832 84.8 51.2 84.8ZM57.6 84.8C56.7168 84.8 56 85.5168 56 86.4C56 87.2832 56.7168 88 57.6 88C58.4832 88 59.2 87.2832 59.2 86.4C59.2 85.5168 58.4832 84.8 57.6 84.8ZM64 84.8C63.1168 84.8 62.4 85.5168 62.4 86.4C62.4 87.2832 63.1168 88 64 88C64.8832 88 65.6 87.2832 65.6 86.4C65.6 85.5168 64.8832 84.8 64 84.8ZM70.4 84.8C69.5168 84.8 68.8 85.5168 68.8 86.4C68.8 87.2832 69.5168 88 70.4 88C71.2832 88 72 87.2832 72 86.4C72 85.5168 71.2832 84.8 70.4 84.8ZM76.8 84.8C75.9168 84.8 75.2 85.5168 75.2 86.4C75.2 87.2832 75.9168 88 76.8 88C77.6832 88 78.4 87.2832 78.4 86.4C78.4 85.5168 77.6832 84.8 76.8 84.8ZM83.2 84.8C82.3168 84.8 81.6 85.5168 81.6 86.4C81.6 87.2832 82.3168 88 83.2 88C84.0832 88 84.8 87.2832 84.8 86.4C84.8 85.5168 84.0832 84.8 83.2 84.8Z" fill="white"/>
</svg>
